<svg width="152" height="40" viewBox="0 0 152 40" fill="none" xmlns="http://www.w3.org/2000/svg">
<path d="M22.888 25.392C22.888 25.4667 22.804 25.5133 22.636 25.532C22.1507 25.476 21.824 25.336 21.656 25.112C21.0587 23.6933 20.6293 22.452 20.368 21.388C19.7893 22.8253 19.0427 23.936 18.128 24.72C17.2133 25.504 16.2053 25.896 15.104 25.896C13.4613 25.896 12.1733 25.168 11.24 23.712C10.3067 22.256 9.84 20.3333 9.84 17.944C9.84 15.8907 10.372 13.968 11.436 12.176C12.0147 11.1867 12.7333 10.2907 13.592 9.488C14.4507 8.68533 15.5613 7.976 16.924 7.36C18.2867 6.744 19.808 6.30533 21.488 6.044L21.964 6.772L21.04 9.18C20.5173 9.10533 19.9667 9.068 19.388 9.068C18.0813 9.068 16.9427 9.30133 15.972 9.768C15.0013 10.216 14.264 10.8133 13.76 11.56C12.808 13.0347 12.332 14.6493 12.332 16.404C12.332 18.7 12.668 20.4547 13.34 21.668C14.0307 22.8627 14.852 23.46 15.804 23.46C17.7267 23.46 19.108 21.9947 19.948 19.064C19.8733 18.4667 19.836 17.776 19.836 16.992C19.836 16.1893 19.9293 15.256 20.116 14.192L20.788 13.744L23.084 14.78C22.4867 15.9187 22.188 17.496 22.188 19.512C22.188 21.528 22.4213 23.488 22.888 25.392ZM32.9424 12.176L35.2104 11.196L35.8824 11.588C35.2664 13.3987 34.9584 15.4893 34.9584 17.86C34.9584 18.868 35.0424 20.268 35.2104 22.06C35.3784 23.852 35.5371 25.0653 35.6864 25.7C35.6864 25.756 35.5464 25.784 35.2664 25.784C34.9864 25.784 34.7157 25.6533 34.4544 25.392C33.8571 24.0107 33.3811 21.976 33.0264 19.288C32.2424 21.1547 31.2997 22.676 30.1984 23.852C29.1157 25.028 28.1357 25.616 27.2584 25.616C25.5784 25.616 24.7384 24.5613 24.7384 22.452C24.7384 21.2387 24.9811 20.072 25.4664 18.952C25.9517 17.832 26.6051 16.852 27.4264 16.012C29.0691 14.3507 30.9077 13.072 32.9424 12.176ZM28.7704 22.256C29.3677 22.256 30.0304 21.78 30.7584 20.828C31.5051 19.8573 32.1677 18.4947 32.7464 16.74C32.7277 16.4787 32.7184 15.9747 32.7184 15.228C32.7184 14.4813 32.7277 13.9307 32.7464 13.576C31.1411 14.4907 29.8437 15.4707 28.8544 16.516C27.8651 17.5427 27.3704 18.756 27.3704 20.156C27.3704 21.556 27.8371 22.256 28.7704 22.256ZM39.8228 5.064L42.0628 6.128C42.2681 7.50933 42.3708 9.012 42.3708 10.636C42.3708 12.2413 42.2774 13.9587 42.0908 15.788C41.6988 19.484 41.1388 22.6853 40.4108 25.392C40.2988 25.5227 40.1028 25.6347 39.8228 25.728C39.5428 25.8213 39.3188 25.868 39.1508 25.868C38.9828 25.868 38.8988 25.8213 38.8988 25.728C39.7761 21.9947 40.2148 18.308 40.2148 14.668C40.2148 11.028 39.8508 7.976 39.1228 5.512L39.8228 5.064ZM52.876 12.176L55.144 11.196L55.816 11.588C55.2 13.3987 54.892 15.4893 54.892 17.86C54.892 18.868 54.976 20.268 55.144 22.06C55.312 23.852 55.4707 25.0653 55.62 25.7C55.62 25.756 55.48 25.784 55.2 25.784C54.92 25.784 54.6493 25.6533 54.388 25.392C53.7907 24.0107 53.3147 21.976 52.96 19.288C52.176 21.1547 51.2333 22.676 50.132 23.852C49.0493 25.028 48.0693 25.616 47.192 25.616C45.512 25.616 44.672 24.5613 44.672 22.452C44.672 21.2387 44.9147 20.072 45.4 18.952C45.8853 17.832 46.5387 16.852 47.36 16.012C49.0027 14.3507 50.8413 13.072 52.876 12.176ZM48.704 22.256C49.3013 22.256 49.964 21.78 50.692 20.828C51.4387 19.8573 52.1013 18.4947 52.68 16.74C52.6613 16.4787 52.652 15.9747 52.652 15.228C52.652 14.4813 52.6613 13.9307 52.68 13.576C51.0747 14.4907 49.7773 15.4707 48.788 16.516C47.7987 17.5427 47.304 18.756 47.304 20.156C47.304 21.556 47.7707 22.256 48.704 22.256ZM58.9163 25.476C58.8603 25.532 58.7017 25.56 58.4403 25.56C58.179 25.56 57.9177 25.4293 57.6563 25.168C59.0003 22.872 60.2417 20.8373 61.3803 19.064C59.775 16.5067 58.8417 14.1173 58.5803 11.896L59.2803 11.42L61.5203 12.54C61.707 13.9213 62.1363 15.3773 62.8083 16.908C64.2083 14.836 65.403 13.184 66.3923 11.952L68.6603 11.56L69.2763 12.008C67.1297 14.4533 65.2723 16.7213 63.7043 18.812C64.8057 20.94 66.2523 23.1613 68.0443 25.476C68.0443 25.6067 67.951 25.672 67.7643 25.672C67.167 25.672 66.7563 25.5787 66.5323 25.392C65.0017 23.9173 63.611 22.312 62.3603 20.576C60.979 22.48 59.831 24.1133 58.9163 25.476ZM81.0576 11.728L81.0296 11.896C79.1442 14.9947 77.5482 19.316 76.2416 24.86C75.1962 29.34 73.1242 32.0373 70.0256 32.952L69.3256 32.448L69.9976 29.732C70.3709 29.788 70.6882 29.816 70.9496 29.816C72.7042 29.816 74.0016 28.3787 74.8416 25.504C74.4309 25.7653 74.1042 25.896 73.8616 25.896C73.6189 25.896 73.4229 25.8587 73.2736 25.784C72.5642 24.3093 71.9389 22.4147 71.3976 20.1C70.8562 17.7667 70.5856 15.6667 70.5856 13.8C70.5856 13.016 70.6322 12.3813 70.7256 11.896L71.4256 11.42L73.6656 12.54C73.3296 13.94 73.1616 15.5173 73.1616 17.272C73.1616 19.008 73.4042 21.192 73.8896 23.824C74.4309 21.9387 75.2709 19.876 76.4096 17.636C77.5482 15.3773 78.6682 13.5013 79.7696 12.008C80.1242 11.7467 80.5256 11.616 80.9736 11.616C81.0296 11.616 81.0576 11.6533 81.0576 11.728Z" fill="#FF523B"/>
<path d="M107.364 25.868C107.364 25.924 107.29 25.952 107.14 25.952C106.655 25.952 106.291 25.812 106.048 25.532C105.078 20.6227 104.592 16.4133 104.592 12.904C104.592 11.9893 104.62 11.084 104.676 10.188C102.53 15.172 101.046 19.8667 100.224 24.272L100.56 25.532L99.9442 25.98L97.2842 24.832C96.7989 20.3707 95.7069 15.4333 94.0082 10.02C93.8402 12.7267 93.5789 15.592 93.2242 18.616C92.8696 21.6213 92.5056 23.8333 92.1322 25.252C91.9829 25.4013 91.7589 25.5227 91.4602 25.616C91.1616 25.728 90.9189 25.784 90.7322 25.784C90.5456 25.784 90.4522 25.7467 90.4522 25.672L90.6482 24.748C90.7789 24.132 90.9189 23.068 91.0682 21.556C91.2176 20.044 91.2922 18.476 91.2922 16.852C91.2922 13.7347 91.0962 10.9253 90.7042 8.424L90.5082 7.192L93.3922 6.044L94.1202 6.492C95.8376 10.3747 97.4616 14.8453 98.9922 19.904C100.262 16.488 102.296 12.0453 105.096 6.576C105.115 6.53867 105.124 6.51067 105.124 6.492L105.852 6.044L108.232 7.192C107.374 9.39467 106.944 12.7827 106.944 17.356C106.944 20.7533 107.084 23.5907 107.364 25.868ZM118.501 12.176L120.769 11.196L121.441 11.588C120.825 13.3987 120.517 15.4893 120.517 17.86C120.517 18.868 120.601 20.268 120.769 22.06C120.937 23.852 121.096 25.0653 121.245 25.7C121.245 25.756 121.105 25.784 120.825 25.784C120.545 25.784 120.274 25.6533 120.013 25.392C119.416 24.0107 118.94 21.976 118.585 19.288C117.801 21.1547 116.858 22.676 115.757 23.852C114.674 25.028 113.694 25.616 112.817 25.616C111.137 25.616 110.297 24.5613 110.297 22.452C110.297 21.2387 110.54 20.072 111.025 18.952C111.51 17.832 112.164 16.852 112.985 16.012C114.628 14.3507 116.466 13.072 118.501 12.176ZM114.329 22.256C114.926 22.256 115.589 21.78 116.317 20.828C117.064 19.8573 117.726 18.4947 118.305 16.74C118.286 16.4787 118.277 15.9747 118.277 15.228C118.277 14.4813 118.286 13.9307 118.305 13.576C116.7 14.4907 115.402 15.4707 114.413 16.516C113.424 17.5427 112.929 18.756 112.929 20.156C112.929 21.556 113.396 22.256 114.329 22.256ZM132.661 12.008L131.989 15.228C131.747 15.1533 131.42 15.116 131.009 15.116C130.599 15.116 130.207 15.2467 129.833 15.508C129.46 15.7693 129.115 16.2173 128.797 16.852C128.48 17.4867 128.209 18.1493 127.985 18.84C127.761 19.5307 127.537 20.268 127.313 21.052C127.089 21.836 126.903 22.4893 126.753 23.012C126.623 23.516 126.352 24.3187 125.941 25.42C125.699 25.7 125.353 25.84 124.905 25.84C124.756 25.84 124.681 25.8027 124.681 25.728C125.167 23.3573 125.409 21.0053 125.409 18.672C125.409 16.32 125.12 14.0613 124.541 11.896L125.213 11.42L127.481 12.624C127.612 13.968 127.677 15.1533 127.677 16.18V16.572C128.835 13.8653 130.3 12.1667 132.073 11.476L132.661 12.008ZM141.148 12.204L140.308 14.164C139.394 14.3507 138.46 14.4533 137.508 14.472C137.154 19.4373 136.687 23.0213 136.108 25.224C135.884 25.4853 135.492 25.616 134.932 25.616C134.802 25.616 134.736 25.588 134.736 25.532C135.147 22.8813 135.352 20.3053 135.352 17.804C135.352 16.8893 135.324 15.76 135.268 14.416C134.279 14.304 133.504 14.1733 132.944 14.024C132.832 13.968 132.711 13.7813 132.58 13.464C132.468 13.128 132.403 12.8667 132.384 12.68L132.496 12.512C133.224 12.6613 134.12 12.736 135.184 12.736C135.072 10.6827 134.97 9.30133 134.876 8.592L135.548 8.116L137.816 9.32L137.648 12.596C138.638 12.484 139.711 12.204 140.868 11.756L141.148 12.204Z" fill="white"/>
<line x1="-8.74228e-08" y1="2" x2="150" y2="1.99999" stroke="#FF523B" stroke-width="2"/>
<line x1="108" y1="36" x2="152" y2="36" stroke="#FF523B" stroke-width="2"/>
<line x1="8.74228e-08" y1="36" x2="42" y2="36" stroke="#FF523B" stroke-width="2"/>
<line x1="151" y1="1" x2="151" y2="37" stroke="#FF523B" stroke-width="2"/>
<line x1="1" y1="1" x2="1" y2="37" stroke="#FF523B" stroke-width="2"/>
<path d="M48.12 37.279C48.12 37.297 48.096 37.306 48.048 37.306C47.892 37.306 47.775 37.261 47.697 37.171C47.385 35.593 47.229 34.24 47.229 33.112C47.229 32.818 47.238 32.527 47.256 32.239C46.566 33.841 46.089 35.35 45.825 36.766L45.933 37.171L45.735 37.315L44.88 36.946C44.724 35.512 44.373 33.925 43.827 32.185C43.773 33.055 43.689 33.976 43.575 34.948C43.461 35.914 43.344 36.625 43.224 37.081C43.176 37.129 43.104 37.168 43.008 37.198C42.912 37.234 42.834 37.252 42.774 37.252C42.714 37.252 42.684 37.24 42.684 37.216L42.747 36.919C42.789 36.721 42.834 36.379 42.882 35.893C42.93 35.407 42.954 34.903 42.954 34.381C42.954 33.379 42.891 32.476 42.765 31.672L42.702 31.276L43.629 30.907L43.863 31.051C44.415 32.299 44.937 33.736 45.429 35.362C45.837 34.264 46.491 32.836 47.391 31.078C47.397 31.066 47.4 31.057 47.4 31.051L47.634 30.907L48.399 31.276C48.123 31.984 47.985 33.073 47.985 34.543C47.985 35.635 48.03 36.547 48.12 37.279ZM51.6277 30.934L52.3477 30.592L52.5727 30.736C52.3387 31.528 52.2217 32.497 52.2217 33.643C52.2217 34.783 52.3567 35.98 52.6267 37.234C52.6267 37.264 52.6027 37.279 52.5547 37.279C52.3987 37.279 52.2757 37.228 52.1857 37.126C52.0417 36.568 51.9037 35.875 51.7717 35.047C51.5257 35.677 51.2227 36.193 50.8627 36.595C50.5027 36.997 50.1607 37.198 49.8367 37.198C49.5787 37.198 49.3837 37.108 49.2517 36.928C49.1257 36.742 49.0627 36.475 49.0627 36.127C49.0627 35.779 49.1377 35.404 49.2877 35.002C49.4437 34.6 49.7167 34.189 50.1067 33.769C50.4967 33.343 50.9767 33.004 51.5467 32.752C51.5407 32.614 51.5377 32.38 51.5377 32.05C51.5377 31.714 51.5677 31.342 51.6277 30.934ZM51.6637 34.264C51.6157 33.808 51.5857 33.466 51.5737 33.238C51.1957 33.406 50.8747 33.628 50.6107 33.904C50.1427 34.402 49.9087 34.918 49.9087 35.452C49.9087 35.896 50.0587 36.118 50.3587 36.118C50.5567 36.118 50.7757 35.956 51.0157 35.632C51.2617 35.308 51.4777 34.852 51.6637 34.264ZM54.969 37.666L55.635 37.342L55.842 37.468C55.842 37.834 55.938 38.074 56.13 38.188C56.184 38.224 56.238 38.242 56.292 38.242C56.436 38.242 56.577 38.134 56.715 37.918C57.075 37.354 57.255 36.277 57.255 34.687C57.255 33.793 57.219 32.938 57.147 32.122C57.075 32.134 56.943 32.14 56.751 32.14C56.565 32.14 56.361 32.113 56.139 32.059L56.04 31.825L56.274 31.051C56.538 31.255 56.901 31.357 57.363 31.357C57.831 31.357 58.314 31.276 58.812 31.114C58.836 31.114 58.848 31.165 58.848 31.267C58.848 31.369 58.803 31.459 58.713 31.537C58.473 31.681 58.281 31.783 58.137 31.843C58.023 34.537 57.846 36.313 57.606 37.171C57.408 37.885 57.072 38.401 56.598 38.719C56.364 38.875 56.157 38.953 55.977 38.953C55.803 38.953 55.647 38.911 55.509 38.827C55.191 38.629 55.011 38.242 54.969 37.666ZM60.5081 32.788C60.4241 33.586 60.3821 34.225 60.3821 34.705C60.3821 35.647 60.5591 36.118 60.9131 36.118C61.1351 36.118 61.3661 35.968 61.6061 35.668C61.8461 35.362 62.0561 34.927 62.2361 34.363C62.2301 34.267 62.2271 34.072 62.2271 33.778C62.2271 33.484 62.2541 33.184 62.3081 32.878L63.0281 32.563L63.2531 32.689C63.0551 33.271 62.9561 33.943 62.9561 34.705C62.9561 35.035 62.9801 35.488 63.0281 36.064C63.0821 36.64 63.1361 37.027 63.1901 37.225C63.1901 37.243 63.1421 37.252 63.0461 37.252C62.9561 37.252 62.8691 37.21 62.7851 37.126C62.6051 36.694 62.4521 36.043 62.3261 35.173C62.0801 35.767 61.7801 36.253 61.4261 36.631C61.0781 37.009 60.7481 37.198 60.4361 37.198C59.9561 37.198 59.7161 36.859 59.7161 36.181C59.7161 35.719 59.7401 35.284 59.7881 34.876C59.8421 34.468 59.8931 34.081 59.9411 33.715C59.9951 33.349 60.0341 33.07 60.0581 32.878C60.0881 32.848 60.1481 32.821 60.2381 32.797C60.3281 32.767 60.3941 32.752 60.4361 32.752C60.4841 32.752 60.5081 32.764 60.5081 32.788ZM64.4568 30.592L65.1858 30.934C65.2458 31.36 65.2758 31.843 65.2758 32.383C65.2758 32.923 65.2398 33.532 65.1678 34.21C65.4138 33.718 65.6898 33.325 65.9958 33.031C66.3078 32.731 66.6018 32.581 66.8778 32.581C67.3938 32.581 67.6518 32.92 67.6518 33.598C67.6518 34.138 67.5018 34.684 67.2018 35.236C66.9078 35.782 66.4968 36.247 65.9688 36.631C65.4468 37.015 64.8888 37.228 64.2948 37.27C64.2828 37.276 64.2558 37.279 64.2138 37.279C64.1778 37.279 64.1598 37.264 64.1598 37.234C64.4418 36.034 64.5828 34.855 64.5828 33.697C64.5828 32.539 64.4688 31.552 64.2408 30.736L64.4568 30.592ZM64.9068 36.019L64.7448 36.775C65.4168 36.547 65.9268 36.193 66.2748 35.713C66.6288 35.227 66.8058 34.765 66.8058 34.327C66.8058 33.883 66.6588 33.661 66.3648 33.661C66.1308 33.661 65.8728 33.871 65.5908 34.291C65.3148 34.705 65.0868 35.281 64.9068 36.019ZM70.7807 32.878L71.5097 32.563L71.7257 32.689C71.5277 33.271 71.4287 33.943 71.4287 34.705C71.4287 35.029 71.4557 35.479 71.5097 36.055C71.5637 36.631 71.6147 37.021 71.6627 37.225C71.6627 37.243 71.6177 37.252 71.5277 37.252C71.4377 37.252 71.3507 37.21 71.2667 37.126C71.0747 36.682 70.9217 36.028 70.8077 35.164C70.5557 35.764 70.2527 36.253 69.8987 36.631C69.5507 37.009 69.2357 37.198 68.9537 37.198C68.4137 37.198 68.1437 36.859 68.1437 36.181C68.1437 35.791 68.2217 35.416 68.3777 35.056C68.5337 34.696 68.7437 34.381 69.0077 34.111C69.5357 33.577 70.1267 33.166 70.7807 32.878ZM69.4397 36.118C69.6317 36.118 69.8447 35.965 70.0787 35.659C70.3187 35.347 70.5317 34.909 70.7177 34.345C70.7117 34.261 70.7087 34.099 70.7087 33.859C70.7087 33.619 70.7117 33.442 70.7177 33.328C70.2017 33.622 69.7847 33.937 69.4667 34.273C69.1487 34.603 68.9897 34.993 68.9897 35.443C68.9897 35.893 69.1397 36.118 69.4397 36.118ZM75.9983 32.734L75.9893 32.788C75.3833 33.784 74.8703 35.173 74.4503 36.955C74.1143 38.395 73.4483 39.262 72.4523 39.556L72.2273 39.394L72.4433 38.521C72.5633 38.539 72.6653 38.548 72.7493 38.548C73.3133 38.548 73.7303 38.086 74.0003 37.162C73.8683 37.246 73.7633 37.288 73.6853 37.288C73.6073 37.288 73.5443 37.276 73.4963 37.252C73.2683 36.778 73.0673 36.169 72.8933 35.425C72.7193 34.675 72.6323 34 72.6323 33.4C72.6323 33.148 72.6473 32.944 72.6773 32.788L72.9023 32.635L73.6223 32.995C73.5143 33.445 73.4603 33.952 73.4603 34.516C73.4603 35.074 73.5383 35.776 73.6943 36.622C73.8683 36.016 74.1383 35.353 74.5043 34.633C74.8703 33.907 75.2303 33.304 75.5843 32.824C75.6983 32.74 75.8273 32.698 75.9713 32.698C75.9893 32.698 75.9983 32.71 75.9983 32.734ZM79.2405 33.688C79.1745 33.964 79.0425 34.213 78.8445 34.435C78.6465 34.657 78.4215 34.834 78.1695 34.966C77.7075 35.206 77.3025 35.359 76.9545 35.425C76.9785 35.725 77.0565 35.947 77.1885 36.091C77.3205 36.235 77.4795 36.307 77.6655 36.307C78.1935 36.307 78.6705 35.863 79.0965 34.975C79.1025 34.939 79.1325 34.921 79.1865 34.921C79.2405 34.921 79.3215 34.963 79.4295 35.047C79.1715 35.671 78.8535 36.187 78.4755 36.595C78.1035 36.997 77.7315 37.198 77.3595 37.198C76.9875 37.198 76.6965 37.063 76.4865 36.793C76.2825 36.523 76.1805 36.16 76.1805 35.704C76.1805 35.074 76.3515 34.492 76.6935 33.958C76.8795 33.67 77.1405 33.418 77.4765 33.202C77.8185 32.98 78.2235 32.815 78.6915 32.707C79.0575 32.833 79.2405 33.16 79.2405 33.688ZM78.1875 33.418C77.9355 33.418 77.6745 33.565 77.4045 33.859C77.1345 34.147 76.9845 34.549 76.9545 35.065C77.4525 34.933 77.8335 34.741 78.0975 34.489C78.3675 34.231 78.5025 33.979 78.5025 33.733C78.5025 33.643 78.4755 33.568 78.4215 33.508C78.3675 33.448 78.2895 33.418 78.1875 33.418ZM82.4246 30.934L83.1446 30.592L83.3696 30.736C83.1356 31.528 83.0186 32.497 83.0186 33.643C83.0186 34.783 83.1536 35.98 83.4236 37.234C83.4236 37.264 83.3996 37.279 83.3516 37.279C83.1956 37.279 83.0726 37.228 82.9826 37.126C82.8386 36.568 82.7006 35.875 82.5686 35.047C82.3226 35.677 82.0196 36.193 81.6596 36.595C81.2996 36.997 80.9576 37.198 80.6336 37.198C80.3756 37.198 80.1806 37.108 80.0486 36.928C79.9226 36.742 79.8596 36.475 79.8596 36.127C79.8596 35.779 79.9346 35.404 80.0846 35.002C80.2406 34.6 80.5136 34.189 80.9036 33.769C81.2936 33.343 81.7736 33.004 82.3436 32.752C82.3376 32.614 82.3346 32.38 82.3346 32.05C82.3346 31.714 82.3646 31.342 82.4246 30.934ZM82.4606 34.264C82.4126 33.808 82.3826 33.466 82.3706 33.238C81.9926 33.406 81.6716 33.628 81.4076 33.904C80.9396 34.402 80.7056 34.918 80.7056 35.452C80.7056 35.896 80.8556 36.118 81.1556 36.118C81.3536 36.118 81.5726 35.956 81.8126 35.632C82.0586 35.308 82.2746 34.852 82.4606 34.264ZM89.9689 31.258L89.6719 32.032C89.3779 31.876 89.0569 31.798 88.7089 31.798C88.3609 31.798 88.0789 31.861 87.8629 31.987C87.6529 32.113 87.5479 32.311 87.5479 32.581C87.5479 32.911 87.8239 33.286 88.3759 33.706C88.6039 33.88 88.8319 34.06 89.0599 34.246C89.2879 34.426 89.4829 34.636 89.6449 34.876C89.8069 35.11 89.8879 35.332 89.8879 35.542C89.8879 35.752 89.8519 35.944 89.7799 36.118C89.7139 36.286 89.5999 36.46 89.4379 36.64C89.2759 36.82 89.0239 36.967 88.6819 37.081C88.3399 37.195 87.9559 37.252 87.5299 37.252C87.1039 37.252 86.7259 37.201 86.3959 37.099C86.3299 36.997 86.2969 36.907 86.2969 36.829C86.2969 36.751 86.2999 36.712 86.3059 36.712C86.3179 36.712 86.3629 36.724 86.4409 36.748C86.6869 36.814 86.9329 36.847 87.1789 36.847C87.6829 36.847 88.0909 36.745 88.4029 36.541C88.7209 36.337 88.8799 36.076 88.8799 35.758C88.8799 35.398 88.6219 35.011 88.1059 34.597C87.8899 34.423 87.6739 34.249 87.4579 34.075C86.9419 33.661 86.6839 33.256 86.6839 32.86C86.6839 32.608 86.7889 32.362 86.9989 32.122C87.4609 31.588 88.3999 31.222 89.8159 31.024L89.9689 31.258ZM91.6742 32.788C91.5902 33.586 91.5482 34.225 91.5482 34.705C91.5482 35.647 91.7252 36.118 92.0792 36.118C92.3012 36.118 92.5322 35.968 92.7722 35.668C93.0122 35.362 93.2222 34.927 93.4022 34.363C93.3962 34.267 93.3932 34.072 93.3932 33.778C93.3932 33.484 93.4202 33.184 93.4742 32.878L94.1942 32.563L94.4192 32.689C94.2212 33.271 94.1222 33.943 94.1222 34.705C94.1222 35.035 94.1462 35.488 94.1942 36.064C94.2482 36.64 94.3022 37.027 94.3562 37.225C94.3562 37.243 94.3082 37.252 94.2122 37.252C94.1222 37.252 94.0352 37.21 93.9512 37.126C93.7712 36.694 93.6182 36.043 93.4922 35.173C93.2462 35.767 92.9462 36.253 92.5922 36.631C92.2442 37.009 91.9142 37.198 91.6022 37.198C91.1222 37.198 90.8822 36.859 90.8822 36.181C90.8822 35.719 90.9062 35.284 90.9542 34.876C91.0082 34.468 91.0592 34.081 91.1072 33.715C91.1612 33.349 91.2002 33.07 91.2242 32.878C91.2542 32.848 91.3142 32.821 91.4042 32.797C91.4942 32.767 91.5602 32.752 91.6022 32.752C91.6502 32.752 91.6742 32.764 91.6742 32.788ZM95.6768 30.592L96.3968 30.934C96.4628 31.378 96.4958 31.861 96.4958 32.383C96.4958 32.899 96.4658 33.451 96.4058 34.039C96.2798 35.227 96.0998 36.256 95.8658 37.126C95.8298 37.168 95.7668 37.204 95.6768 37.234C95.5868 37.264 95.5148 37.279 95.4608 37.279C95.4068 37.279 95.3798 37.264 95.3798 37.234C95.6618 36.034 95.8028 34.849 95.8028 33.679C95.8028 32.509 95.6858 31.528 95.4518 30.736L95.6768 30.592ZM99.9625 32.887L99.6925 33.517C99.3985 33.577 99.0985 33.61 98.7925 33.616C98.6785 35.212 98.5285 36.364 98.3425 37.072C98.2705 37.156 98.1445 37.198 97.9645 37.198C97.9225 37.198 97.9015 37.189 97.9015 37.171C98.0335 36.319 98.0995 35.491 98.0995 34.687C98.0995 34.393 98.0905 34.03 98.0725 33.598C97.7545 33.562 97.5055 33.52 97.3255 33.472C97.2895 33.454 97.2505 33.394 97.2085 33.292C97.1725 33.184 97.1515 33.1 97.1455 33.04L97.1815 32.986C97.4155 33.034 97.7035 33.058 98.0455 33.058C98.0095 32.398 97.9765 31.954 97.9465 31.726L98.1625 31.573L98.8915 31.96L98.8375 33.013C99.1555 32.977 99.5005 32.887 99.8725 32.743L99.9625 32.887ZM102.202 32.878L102.931 32.563L103.147 32.689C102.949 33.271 102.85 33.943 102.85 34.705C102.85 35.029 102.877 35.479 102.931 36.055C102.985 36.631 103.036 37.021 103.084 37.225C103.084 37.243 103.039 37.252 102.949 37.252C102.859 37.252 102.772 37.21 102.688 37.126C102.496 36.682 102.343 36.028 102.229 35.164C101.977 35.764 101.674 36.253 101.32 36.631C100.972 37.009 100.657 37.198 100.375 37.198C99.8346 37.198 99.5646 36.859 99.5646 36.181C99.5646 35.791 99.6426 35.416 99.7986 35.056C99.9546 34.696 100.165 34.381 100.429 34.111C100.957 33.577 101.548 33.166 102.202 32.878ZM100.861 36.118C101.053 36.118 101.266 35.965 101.5 35.659C101.74 35.347 101.953 34.909 102.139 34.345C102.133 34.261 102.13 34.099 102.13 33.859C102.13 33.619 102.133 33.442 102.139 33.328C101.623 33.622 101.206 33.937 100.888 34.273C100.57 34.603 100.411 34.993 100.411 35.443C100.411 35.893 100.561 36.118 100.861 36.118ZM104.224 37.081C104.368 36.325 104.44 35.638 104.44 35.02C104.44 34.402 104.416 33.967 104.368 33.715C104.326 33.457 104.278 33.241 104.224 33.067C104.176 32.893 104.149 32.794 104.143 32.77L104.359 32.635L105.088 32.986C105.136 33.334 105.16 33.625 105.16 33.859C105.16 34.093 105.157 34.264 105.151 34.372C105.403 33.88 105.682 33.487 105.988 33.193C106.294 32.899 106.576 32.752 106.834 32.752C107.332 32.752 107.581 33.091 107.581 33.769C107.581 34.297 107.53 34.93 107.428 35.668C107.326 36.4 107.263 36.868 107.239 37.072C107.167 37.156 107.035 37.198 106.843 37.198C106.801 37.198 106.78 37.189 106.78 37.171C106.87 36.403 106.915 35.761 106.915 35.245C106.915 34.303 106.738 33.832 106.384 33.832C106.114 33.832 105.835 34.051 105.547 34.489C105.265 34.927 105.034 35.545 104.854 36.343H104.836C104.752 36.631 104.683 36.847 104.629 36.991C104.545 37.075 104.455 37.117 104.359 37.117C104.269 37.117 104.224 37.105 104.224 37.081Z" fill="#FF523B"/>
</svg>
