<svg width="96" height="25" viewBox="0 0 96 25" fill="none" xmlns="http://www.w3.org/2000/svg">
<line x1="-8.74228e-08" y1="1.28125" x2="96" y2="1.28124" stroke="#110202" stroke-width="2"/>
<line x1="8.74228e-08" y1="23.041" x2="96" y2="23.041" stroke="#FF523B" stroke-width="2"/>
<line x1="95" y1="1" x2="95" y2="24.04" stroke="#110202" stroke-width="2"/>
<line x1="1" y1="1" x2="1" y2="24.04" stroke="#110202" stroke-width="2"/>
<path d="M5.80566 16V8.12598H6.84766V15.0708H10.7256V16H5.80566ZM11.4883 13.1479C11.4883 12.0916 11.7819 11.3092 12.3691 10.8008C12.8597 10.3783 13.4577 10.167 14.1631 10.167C14.9473 10.167 15.5882 10.4248 16.0859 10.9404C16.5837 11.4525 16.8325 12.1615 16.8325 13.0674C16.8325 13.8014 16.7215 14.3797 16.4995 14.8022C16.2811 15.2212 15.9606 15.547 15.5381 15.7798C15.1191 16.0125 14.6608 16.1289 14.1631 16.1289C13.3646 16.1289 12.7183 15.8729 12.2241 15.3608C11.7336 14.8488 11.4883 14.1112 11.4883 13.1479ZM12.4819 13.1479C12.4819 13.8784 12.6413 14.4263 12.96 14.7915C13.2786 15.1532 13.6797 15.334 14.1631 15.334C14.6429 15.334 15.0422 15.1514 15.3608 14.7861C15.6795 14.4209 15.8389 13.8641 15.8389 13.1157C15.8389 12.4103 15.6777 11.8768 15.3555 11.5151C15.0368 11.1499 14.6393 10.9673 14.1631 10.9673C13.6797 10.9673 13.2786 11.1481 12.96 11.5098C12.6413 11.8714 12.4819 12.4175 12.4819 13.1479ZM17.7939 16.4727L18.7339 16.6123C18.7733 16.9023 18.8825 17.1136 19.0615 17.2461C19.3014 17.4251 19.6291 17.5146 20.0444 17.5146C20.492 17.5146 20.8376 17.4251 21.0811 17.2461C21.3245 17.0671 21.4893 16.8164 21.5752 16.4941C21.6253 16.2972 21.6486 15.8836 21.645 15.2534C21.2225 15.7511 20.6961 16 20.0659 16C19.2817 16 18.6748 15.7171 18.2451 15.1514C17.8154 14.5856 17.6006 13.9071 17.6006 13.1157C17.6006 12.5715 17.6991 12.0701 17.896 11.6118C18.0929 11.1499 18.3776 10.7936 18.75 10.543C19.126 10.2923 19.5664 10.167 20.0713 10.167C20.7445 10.167 21.2995 10.4391 21.7363 10.9834V10.2959H22.6279V15.2266C22.6279 16.1146 22.5366 16.743 22.354 17.1118C22.175 17.4842 21.8885 17.7778 21.4946 17.9927C21.1043 18.2075 20.6227 18.3149 20.0498 18.3149C19.3695 18.3149 18.8198 18.161 18.4009 17.853C17.9819 17.5487 17.7796 17.0885 17.7939 16.4727ZM18.5942 13.0459C18.5942 13.7943 18.7428 14.3403 19.04 14.6841C19.3372 15.0278 19.7096 15.1997 20.1572 15.1997C20.6012 15.1997 20.9736 15.0296 21.2744 14.6895C21.5752 14.3457 21.7256 13.8086 21.7256 13.0781C21.7256 12.3799 21.5698 11.8535 21.2583 11.499C20.9504 11.1445 20.578 10.9673 20.1411 10.9673C19.7114 10.9673 19.3462 11.1427 19.0454 11.4937C18.7446 11.841 18.5942 12.3584 18.5942 13.0459ZM27.4565 16V8.12598H28.4985V16H27.4565ZM30.2173 16V10.2959H31.0874V11.1069C31.5063 10.4803 32.1115 10.167 32.9028 10.167C33.2466 10.167 33.5617 10.2297 33.8481 10.355C34.1382 10.4767 34.3548 10.6379 34.498 10.8384C34.6413 11.0389 34.7415 11.277 34.7988 11.5527C34.8346 11.7318 34.8525 12.0451 34.8525 12.4927V16H33.8857V12.5303C33.8857 12.1364 33.8481 11.8428 33.7729 11.6494C33.6978 11.4525 33.5635 11.2967 33.3701 11.1821C33.1803 11.064 32.9565 11.0049 32.6987 11.0049C32.2869 11.0049 31.9307 11.1356 31.6299 11.397C31.3327 11.6584 31.1841 12.1543 31.1841 12.8848V16H30.2173ZM43.9028 15.0708C43.5841 15.4253 43.2368 15.6921 42.8608 15.8711C42.4849 16.0465 42.0785 16.1343 41.6416 16.1343C40.8359 16.1343 40.1968 15.8621 39.7241 15.3179C39.341 14.8739 39.1494 14.3779 39.1494 13.8301C39.1494 13.3431 39.3052 12.9045 39.6167 12.5142C39.9318 12.1203 40.4009 11.7747 41.0239 11.4775C40.6694 11.0693 40.4331 10.7381 40.3149 10.4839C40.1968 10.2297 40.1377 9.98438 40.1377 9.74805C40.1377 9.27539 40.3221 8.8654 40.6909 8.51807C41.0633 8.16715 41.5306 7.9917 42.0928 7.9917C42.6299 7.9917 43.0685 8.15641 43.4087 8.48584C43.7524 8.81527 43.9243 9.21094 43.9243 9.67285C43.9243 10.4212 43.4284 11.0604 42.4365 11.5903L43.8491 13.3896C44.0103 13.0745 44.1356 12.7093 44.2251 12.2939L45.2295 12.5088C45.0576 13.1963 44.8249 13.762 44.5312 14.2061C44.8929 14.6859 45.3029 15.0887 45.7612 15.4146L45.1113 16.1826C44.721 15.932 44.3182 15.5614 43.9028 15.0708ZM41.937 10.9673C42.356 10.7202 42.6263 10.5036 42.748 10.3174C42.8734 10.1312 42.936 9.92529 42.936 9.69971C42.936 9.43115 42.8501 9.21273 42.6782 9.04443C42.5099 8.87256 42.2987 8.78662 42.0444 8.78662C41.783 8.78662 41.5646 8.87077 41.3892 9.03906C41.2173 9.20736 41.1313 9.41325 41.1313 9.65674C41.1313 9.77848 41.1618 9.90739 41.2227 10.0435C41.2871 10.1759 41.382 10.3174 41.5073 10.4678L41.937 10.9673ZM43.2959 14.3081L41.5234 12.1113C41.0007 12.4229 40.6479 12.7129 40.4653 12.9814C40.2827 13.2464 40.1914 13.5096 40.1914 13.771C40.1914 14.0897 40.3185 14.4209 40.5728 14.7646C40.827 15.1084 41.1868 15.2803 41.6523 15.2803C41.9424 15.2803 42.2414 15.1908 42.5493 15.0117C42.8608 14.8291 43.1097 14.5946 43.2959 14.3081ZM49.5693 13.4702L50.5522 13.3843C50.5988 13.7782 50.7062 14.1022 50.8745 14.3564C51.0464 14.6071 51.3114 14.8112 51.6694 14.9688C52.0275 15.1227 52.4303 15.1997 52.8779 15.1997C53.2754 15.1997 53.6263 15.1406 53.9307 15.0225C54.235 14.9043 54.4606 14.7432 54.6074 14.5391C54.7578 14.3314 54.833 14.1058 54.833 13.8623C54.833 13.6152 54.7614 13.4004 54.6182 13.2178C54.4749 13.0316 54.2386 12.8758 53.9092 12.7505C53.6979 12.6681 53.2306 12.541 52.5073 12.3691C51.784 12.1937 51.2773 12.029 50.9873 11.875C50.6113 11.6781 50.3302 11.4346 50.144 11.1445C49.9614 10.8509 49.8701 10.5233 49.8701 10.1616C49.8701 9.76416 49.9829 9.39355 50.2085 9.0498C50.4341 8.70247 50.7635 8.43929 51.1968 8.26025C51.63 8.08122 52.1117 7.9917 52.6416 7.9917C53.2253 7.9917 53.7391 8.08659 54.1831 8.27637C54.6307 8.46257 54.9744 8.73828 55.2144 9.10352C55.4543 9.46875 55.5832 9.88232 55.6011 10.3442L54.6021 10.4194C54.5483 9.92171 54.3657 9.54574 54.0542 9.2915C53.7463 9.03727 53.2897 8.91016 52.6846 8.91016C52.0544 8.91016 51.5942 9.02653 51.3042 9.25928C51.0177 9.48844 50.8745 9.76595 50.8745 10.0918C50.8745 10.3747 50.9766 10.6074 51.1807 10.79C51.3812 10.9727 51.904 11.1606 52.749 11.354C53.5977 11.5438 54.1795 11.7103 54.4946 11.8535C54.953 12.0648 55.2913 12.3333 55.5098 12.6592C55.7282 12.9814 55.8374 13.3538 55.8374 13.7764C55.8374 14.1953 55.7174 14.591 55.4775 14.9634C55.2376 15.3322 54.8921 15.6204 54.4409 15.8281C53.9933 16.0322 53.4884 16.1343 52.9263 16.1343C52.2137 16.1343 51.6157 16.0304 51.1323 15.8228C50.6525 15.6151 50.2747 15.3035 49.999 14.8882C49.7269 14.4692 49.5837 13.9966 49.5693 13.4702ZM57.1426 9.23779V8.12598H58.1094V9.23779H57.1426ZM57.1426 16V10.2959H58.1094V16H57.1426ZM59.4092 16.4727L60.3491 16.6123C60.3885 16.9023 60.4977 17.1136 60.6768 17.2461C60.9167 17.4251 61.2443 17.5146 61.6597 17.5146C62.1073 17.5146 62.4528 17.4251 62.6963 17.2461C62.9398 17.0671 63.1045 16.8164 63.1904 16.4941C63.2406 16.2972 63.2638 15.8836 63.2603 15.2534C62.8377 15.7511 62.3114 16 61.6812 16C60.897 16 60.29 15.7171 59.8604 15.1514C59.4307 14.5856 59.2158 13.9071 59.2158 13.1157C59.2158 12.5715 59.3143 12.0701 59.5112 11.6118C59.7082 11.1499 59.9928 10.7936 60.3652 10.543C60.7412 10.2923 61.1816 10.167 61.6865 10.167C62.3597 10.167 62.9147 10.4391 63.3516 10.9834V10.2959H64.2432V15.2266C64.2432 16.1146 64.1519 16.743 63.9692 17.1118C63.7902 17.4842 63.5037 17.7778 63.1099 17.9927C62.7196 18.2075 62.238 18.3149 61.665 18.3149C60.9847 18.3149 60.4351 18.161 60.0161 17.853C59.5972 17.5487 59.3949 17.0885 59.4092 16.4727ZM60.2095 13.0459C60.2095 13.7943 60.3581 14.3403 60.6553 14.6841C60.9525 15.0278 61.3249 15.1997 61.7725 15.1997C62.2165 15.1997 62.5889 15.0296 62.8896 14.6895C63.1904 14.3457 63.3408 13.8086 63.3408 13.0781C63.3408 12.3799 63.1851 11.8535 62.8735 11.499C62.5656 11.1445 62.1932 10.9673 61.7563 10.9673C61.3267 10.9673 60.9614 11.1427 60.6606 11.4937C60.3599 11.841 60.2095 12.3584 60.2095 13.0459ZM65.7095 16V10.2959H66.5796V11.1069C66.9985 10.4803 67.6037 10.167 68.395 10.167C68.7388 10.167 69.0539 10.2297 69.3403 10.355C69.6304 10.4767 69.847 10.6379 69.9902 10.8384C70.1335 11.0389 70.2337 11.277 70.291 11.5527C70.3268 11.7318 70.3447 12.0451 70.3447 12.4927V16H69.3779V12.5303C69.3779 12.1364 69.3403 11.8428 69.2651 11.6494C69.1899 11.4525 69.0557 11.2967 68.8623 11.1821C68.6725 11.064 68.4487 11.0049 68.1909 11.0049C67.7791 11.0049 67.4229 11.1356 67.1221 11.397C66.8249 11.6584 66.6763 12.1543 66.6763 12.8848V16H65.7095ZM80.1846 8.12598H81.2266V12.6753C81.2266 13.4666 81.137 14.0951 80.958 14.5605C80.779 15.026 80.4549 15.4056 79.9858 15.6992C79.5203 15.9893 78.908 16.1343 78.1489 16.1343C77.4113 16.1343 76.8079 16.0072 76.3389 15.7529C75.8698 15.4987 75.535 15.1317 75.3345 14.6519C75.134 14.1685 75.0337 13.5096 75.0337 12.6753V8.12598H76.0757V12.6699C76.0757 13.3538 76.1383 13.8587 76.2637 14.1846C76.3926 14.5068 76.611 14.7557 76.9189 14.9312C77.2305 15.1066 77.61 15.1943 78.0576 15.1943C78.8239 15.1943 79.37 15.0207 79.6958 14.6733C80.0216 14.326 80.1846 13.6582 80.1846 12.6699V8.12598ZM82.8433 18.186V10.2959H83.7241V11.0371C83.9318 10.7471 84.1663 10.5304 84.4277 10.3872C84.6891 10.2404 85.006 10.167 85.3784 10.167C85.8654 10.167 86.2951 10.2923 86.6675 10.543C87.0399 10.7936 87.321 11.1481 87.5107 11.6064C87.7005 12.0612 87.7954 12.5607 87.7954 13.105C87.7954 13.6886 87.6898 14.215 87.4785 14.6841C87.2708 15.1496 86.9665 15.5076 86.5654 15.7583C86.168 16.0054 85.749 16.1289 85.3086 16.1289C84.9863 16.1289 84.6963 16.0609 84.4385 15.9248C84.1842 15.7887 83.9748 15.6169 83.8101 15.4092V18.186H82.8433ZM83.7188 13.1802C83.7188 13.9142 83.8674 14.4567 84.1646 14.8076C84.4618 15.1585 84.8216 15.334 85.2441 15.334C85.6738 15.334 86.0409 15.1532 86.3452 14.7915C86.6532 14.4263 86.8071 13.8623 86.8071 13.0996C86.8071 12.3727 86.6567 11.8285 86.356 11.4668C86.0588 11.1051 85.7025 10.9243 85.2871 10.9243C84.8753 10.9243 84.5101 11.1177 84.1914 11.5044C83.8763 11.8875 83.7188 12.4461 83.7188 13.1802Z" fill="#555555"/>
</svg>
